<svg width="25.000000" height="23.000000" viewBox="0 0 25 23" fill="none" xmlns="http://www.w3.org/2000/svg" xmlns:xlink="http://www.w3.org/1999/xlink">
	<desc>
			Created with Pixso.
	</desc>
	<defs/>
	<path id="Vector 52" d="M5.41 3.13L23.6 3.13C23.71 3.13 23.8 3.22 23.8 3.33L23.8 10.18C23.8 10.28 23.73 10.36 23.64 10.38L6.49 13.95" stroke="#000000" stroke-opacity="1.000000" stroke-width="1.000000"/>
	<path id="Vector 53" d="M2.16 20.08C2.16 18.89 3.13 17.92 4.32 17.92C5.52 17.92 6.49 18.89 6.49 20.08C6.49 21.28 5.52 22.25 4.32 22.25C3.13 22.25 2.16 21.28 2.16 20.08Z" stroke="#000000" stroke-opacity="1.000000" stroke-width="1.000000"/>
	<path id="Vector 54" d="M19.47 20.08C19.47 18.89 20.44 17.92 21.63 17.92C22.83 17.92 23.8 18.89 23.8 20.08C23.8 21.28 22.83 22.25 21.63 22.25C20.44 22.25 19.47 21.28 19.47 20.08Z" stroke="#000000" stroke-opacity="1.000000" stroke-width="1.000000"/>
	<path id="Vector 51" d="M0 0.25L4.86 0.25C4.97 0.25 5.05 0.32 5.06 0.42L6.48 13.9C6.48 13.93 6.48 13.97 6.46 14L4.81 17.63C4.75 17.77 4.85 17.92 4.99 17.92L22 17.92" stroke="#000000" stroke-opacity="1.000000" stroke-width="1.000000"/>
</svg>
