<svg width="23.000000" height="23.000000" viewBox="0 0 23 23" fill="none" xmlns="http://www.w3.org/2000/svg" xmlns:xlink="http://www.w3.org/1999/xlink">
	<desc>
			Created with Pixso.
	</desc>
	<defs/>
	<path id="Vector 57" d="M21.43 19.12C21.72 19.12 21.84 18.76 21.62 18.58L19.14 16.66C19.07 16.6 19.03 16.52 19.03 16.42L19.03 11.06C19.03 6.71 15.5 3.18 11.15 3.18C6.8 3.18 3.28 6.71 3.28 11.06L3.28 16.57L3.27 16.57L0.69 18.58C0.46 18.76 0.58 19.12 0.87 19.12L21.43 19.12ZM11.15 0L11.15 3.18" stroke="#2A1F20" stroke-opacity="1.000000" stroke-width="1.000000"/>
	<path id="Vector 58" d="M8.25 19.25C8.25 20.76 9.48 22 11 22C12.51 22 13.75 20.76 13.75 19.25" stroke="#2A1F20" stroke-opacity="1.000000" stroke-width="1.000000"/>
</svg>
