<svg width="27.000000" height="22.000000" viewBox="0 0 27 22" fill="none" xmlns="http://www.w3.org/2000/svg" xmlns:xlink="http://www.w3.org/1999/xlink">
	<desc>
			Created with Pixso.
	</desc>
	<defs/>
	<path id="Vector" d="M19.13 -0.75C16.53 -0.75 14.29 0.48 13.07 2.52C11.85 0.48 9.62 -0.75 7.02 -0.75C5.16 -0.75 3.37 -0.01 2.05 1.3C0.74 2.62 0 4.41 0 6.27C0 9.73 2.17 13.35 6.46 17.02C8.44 18.7 10.58 20.19 12.84 21.47C12.91 21.51 12.99 21.53 13.07 21.53C13.15 21.53 13.23 21.51 13.3 21.47C15.57 20.19 17.71 18.7 19.68 17.02C23.97 13.35 26.15 9.73 26.15 6.27C26.15 4.41 25.41 2.62 24.09 1.3C22.78 -0.01 20.99 -0.75 19.13 -0.75ZM13.07 20.49C11.38 19.52 0.96 13.3 0.96 6.27C0.97 4.66 1.6 3.12 2.74 1.99C3.87 0.85 5.41 0.22 7.02 0.21C9.58 0.21 11.72 1.58 12.62 3.79C12.66 3.88 12.72 3.95 12.8 4.01C12.88 4.06 12.98 4.09 13.07 4.09C13.17 4.09 13.26 4.06 13.34 4.01C13.42 3.95 13.48 3.88 13.52 3.79C14.42 1.58 16.57 0.21 19.13 0.21C20.73 0.22 22.27 0.85 23.41 1.99C24.54 3.12 25.18 4.66 25.18 6.27C25.18 13.29 14.77 19.52 13.07 20.49Z" fill="#000000" fill-opacity="1.000000" fill-rule="nonzero"/>
</svg>
