<svg width="37.000000" height="37.000000" viewBox="0 0 37 37" fill="none" xmlns="http://www.w3.org/2000/svg" xmlns:xlink="http://www.w3.org/1999/xlink">
	<desc>
			Created with Pixso.
	</desc>
	<defs>
		<clipPath id="clip223_3825">
			<rect id="Frame 1908" rx="10.000000" width="37.000000" height="37.000000" fill="white" fill-opacity="0"/>
		</clipPath>
	</defs>
	<rect id="Frame 1908" rx="10.000000" width="37.000000" height="37.000000" fill="#FFFFFF" fill-opacity="1.000000"/>
	<g clip-path="url(#clip223_3825)">
		<path id="Vector" d="M30.59 11.85C30.29 10.73 29.41 9.84 28.28 9.54C26.24 9 18.07 9 18.07 9C18.07 9 9.89 9 7.85 9.54C6.73 9.84 5.84 10.73 5.54 11.85C5 13.89 5 18.15 5 18.15C5 18.15 5 22.4 5.54 24.44C5.84 25.56 6.73 26.45 7.85 26.75C9.89 27.3 18.07 27.3 18.07 27.3C18.07 27.3 26.24 27.3 28.28 26.75C29.41 26.45 30.29 25.56 30.59 24.44C31.14 22.4 31.14 18.15 31.14 18.15C31.14 18.15 31.14 13.89 30.59 11.85Z" fill="#FF0000" fill-opacity="1.000000" fill-rule="nonzero"/>
		<path id="Vector" d="M15.45 22.07L22.24 18.15L15.45 14.22L15.45 22.07Z" fill="#FFFFFF" fill-opacity="1.000000" fill-rule="nonzero"/>
	</g>
</svg>
