<svg width="37.000000" height="37.000000" viewBox="0 0 37 37" fill="none" xmlns="http://www.w3.org/2000/svg" xmlns:xlink="http://www.w3.org/1999/xlink">
	<desc>
			Created with Pixso.
	</desc>
	<defs>
		<clipPath id="clip223_3831">
			<rect id="Instagram_logo_2016 1" width="23.000000" height="23.000000" transform="translate(7.000000 7.000000)" fill="white" fill-opacity="0"/>
		</clipPath>
		<clipPath id="clip223_3830">
			<rect id="Frame 1909" rx="10.000000" width="37.000000" height="37.000000" fill="white" fill-opacity="0"/>
		</clipPath>
		<radialGradient gradientTransform="translate(13.1916 31.5684) rotate(-90) scale(22.4474 20.8829)" cx="0.000000" cy="0.000000" r="1.000000" id="paint_radial_223_3832_0" gradientUnits="userSpaceOnUse">
			<stop stop-color="#FFDD55"/>
			<stop offset="0.100000" stop-color="#FFDD55"/>
			<stop offset="0.500000" stop-color="#FF543E"/>
			<stop offset="1.000000" stop-color="#C837AB"/>
		</radialGradient>
		<radialGradient gradientTransform="translate(3.37899 8.80595) rotate(78.678) scale(10.0342 41.3706)" cx="0.000000" cy="0.000000" r="1.000000" id="paint_radial_223_3833_0" gradientUnits="userSpaceOnUse">
			<stop stop-color="#3771C8"/>
			<stop offset="0.128000" stop-color="#3771C8"/>
			<stop offset="1.000000" stop-color="#6600FF" stop-opacity="0.000000"/>
		</radialGradient>
	</defs>
	<rect id="Frame 1909" rx="10.000000" width="37.000000" height="37.000000" fill="#FFFFFF" fill-opacity="1.000000"/>
	<g clip-path="url(#clip223_3830)">
		<rect id="Instagram_logo_2016 1" width="23.000000" height="23.000000" transform="translate(7.000000 7.000000)" fill="#FFFFFF" fill-opacity="0"/>
		<g clip-path="url(#clip223_3831)">
			<path id="Vector" d="M18.5 7.17C13.77 7.17 12.39 7.17 12.12 7.2C11.15 7.28 10.54 7.43 9.89 7.76C9.38 8.01 8.98 8.3 8.58 8.71C7.87 9.46 7.43 10.37 7.27 11.47C7.2 12 7.17 12.1 7.17 14.81C7.17 15.71 7.17 16.9 7.17 18.49C7.17 23.22 7.17 24.6 7.2 24.87C7.28 25.81 7.42 26.4 7.74 27.05C8.34 28.3 9.48 29.23 10.83 29.58C11.3 29.7 11.81 29.77 12.48 29.8C12.76 29.81 15.62 29.82 18.48 29.82C21.34 29.82 24.2 29.82 24.47 29.8C25.24 29.77 25.68 29.71 26.18 29.58C27.53 29.23 28.66 28.31 29.27 27.05C29.58 26.41 29.73 25.8 29.8 24.9C29.82 24.71 29.82 21.59 29.82 18.49C29.82 15.38 29.82 12.27 29.8 12.08C29.73 11.17 29.57 10.56 29.26 9.91C29 9.38 28.71 8.99 28.29 8.58C27.54 7.87 26.62 7.43 25.53 7.27C25 7.2 24.89 7.17 22.19 7.17L18.5 7.17Z" fill="url(#paint_radial_223_3832_0)" fill-opacity="1.000000" fill-rule="nonzero"/>
			<path id="Vector" d="M18.5 7.17C13.77 7.17 12.39 7.17 12.12 7.2C11.15 7.28 10.54 7.43 9.89 7.76C9.38 8.01 8.98 8.3 8.58 8.71C7.87 9.46 7.43 10.37 7.27 11.47C7.2 12 7.17 12.1 7.17 14.81C7.17 15.71 7.17 16.9 7.17 18.49C7.17 23.22 7.17 24.6 7.2 24.87C7.28 25.81 7.42 26.4 7.74 27.05C8.34 28.3 9.48 29.23 10.83 29.58C11.3 29.7 11.81 29.77 12.48 29.8C12.76 29.81 15.62 29.82 18.48 29.82C21.34 29.82 24.2 29.82 24.47 29.8C25.24 29.77 25.68 29.71 26.18 29.58C27.53 29.23 28.66 28.31 29.27 27.05C29.58 26.41 29.73 25.8 29.8 24.9C29.82 24.71 29.82 21.59 29.82 18.49C29.82 15.38 29.82 12.27 29.8 12.08C29.73 11.17 29.57 10.56 29.26 9.91C29 9.38 28.71 8.99 28.29 8.58C27.54 7.87 26.62 7.43 25.53 7.27C25 7.2 24.89 7.17 22.19 7.17L18.5 7.17Z" fill="url(#paint_radial_223_3833_0)" fill-opacity="1.000000" fill-rule="nonzero"/>
			<path id="Vector" d="M18.5 10.13C16.22 10.13 15.94 10.14 15.05 10.18C14.16 10.22 13.55 10.36 13.02 10.57C12.47 10.78 12 11.07 11.54 11.54C11.07 12 10.79 12.47 10.57 13.02C10.36 13.55 10.22 14.16 10.18 15.05C10.14 15.94 10.13 16.22 10.13 18.5C10.13 20.77 10.14 21.05 10.18 21.94C10.22 22.83 10.36 23.44 10.57 23.97C10.79 24.52 11.07 24.99 11.54 25.45C12 25.92 12.47 26.21 13.02 26.42C13.55 26.63 14.16 26.77 15.05 26.81C15.94 26.85 16.22 26.86 18.5 26.86C20.77 26.86 21.05 26.85 21.94 26.81C22.83 26.77 23.44 26.63 23.97 26.42C24.52 26.21 24.99 25.92 25.45 25.45C25.92 24.99 26.21 24.52 26.42 23.97C26.62 23.44 26.77 22.83 26.81 21.94C26.85 21.05 26.86 20.77 26.86 18.5C26.86 16.22 26.85 15.94 26.81 15.05C26.77 14.16 26.62 13.55 26.42 13.02C26.21 12.47 25.92 12 25.45 11.54C24.99 11.07 24.52 10.78 23.97 10.57C23.44 10.36 22.83 10.22 21.94 10.18C21.05 10.14 20.77 10.13 18.49 10.13L18.5 10.13ZM17.75 11.64C17.97 11.64 18.22 11.64 18.5 11.64C20.73 11.64 20.99 11.65 21.87 11.69C22.69 11.72 23.13 11.86 23.43 11.97C23.82 12.13 24.1 12.31 24.39 12.6C24.68 12.89 24.86 13.17 25.02 13.56C25.13 13.86 25.27 14.3 25.3 15.11C25.34 16 25.35 16.26 25.35 18.49C25.35 20.73 25.34 20.99 25.3 21.87C25.27 22.69 25.13 23.13 25.02 23.42C24.86 23.81 24.68 24.09 24.39 24.39C24.1 24.68 23.82 24.86 23.43 25.01C23.13 25.13 22.69 25.26 21.87 25.3C20.99 25.34 20.73 25.35 18.5 25.35C16.26 25.35 16 25.34 15.12 25.3C14.3 25.26 13.86 25.12 13.56 25.01C13.17 24.86 12.89 24.68 12.6 24.38C12.31 24.09 12.13 23.81 11.98 23.42C11.86 23.13 11.72 22.69 11.69 21.87C11.65 20.99 11.64 20.72 11.64 18.49C11.64 16.26 11.65 15.99 11.69 15.11C11.72 14.3 11.86 13.85 11.98 13.56C12.13 13.17 12.31 12.89 12.6 12.6C12.89 12.31 13.17 12.12 13.56 11.97C13.86 11.86 14.3 11.72 15.12 11.68C15.89 11.65 16.19 11.64 17.75 11.64L17.75 11.64ZM22.96 13.03C22.41 13.03 21.96 13.48 21.96 14.03C21.96 14.58 22.41 15.03 22.96 15.03C23.51 15.03 23.96 14.58 23.96 14.03C23.96 13.48 23.51 13.03 22.96 13.03L22.96 13.03ZM18.5 14.2C16.12 14.2 14.2 16.12 14.2 18.5C14.2 20.87 16.12 22.79 18.5 22.79C20.87 22.79 22.79 20.87 22.79 18.5C22.79 16.12 20.87 14.2 18.5 14.2ZM18.5 15.71C20.04 15.71 21.28 16.96 21.28 18.5C21.28 20.03 20.04 21.28 18.5 21.28C16.96 21.28 15.71 20.03 15.71 18.5C15.71 16.96 16.96 15.71 18.5 15.71Z" fill="#FFFFFF" fill-opacity="1.000000" fill-rule="nonzero"/>
		</g>
	</g>
</svg>
