<svg width="37.000000" height="37.000000" viewBox="0 0 37 37" fill="none" xmlns="http://www.w3.org/2000/svg" xmlns:xlink="http://www.w3.org/1999/xlink">
	<desc>
			Created with Pixso.
	</desc>
	<defs>
		<clipPath id="clip223_3847">
			<rect id="Odnoklassniki 1" width="23.000000" height="23.000000" transform="translate(7.000000 7.000000)" fill="white" fill-opacity="0"/>
		</clipPath>
		<clipPath id="clip223_3846">
			<rect id="Frame 1913" rx="10.000000" width="37.000000" height="37.000000" fill="white" fill-opacity="0"/>
		</clipPath>
	</defs>
	<rect id="Frame 1913" rx="10.000000" width="37.000000" height="37.000000" fill="#FFFFFF" fill-opacity="1.000000"/>
	<g clip-path="url(#clip223_3846)">
		<rect id="Odnoklassniki 1" width="23.000000" height="23.000000" transform="translate(7.000000 7.000000)" fill="#FFFFFF" fill-opacity="0"/>
		<g clip-path="url(#clip223_3847)">
			<path id="Vector" d="M30 26.63C30 28.49 28.5 30 26.65 30L10.34 30C8.49 30 7 28.49 7 26.63L7 10.36C7 8.5 8.49 7 10.34 7L26.65 7C28.5 7 30 8.5 30 10.36L30 26.63Z" fill="#FAAB62" fill-opacity="1.000000" fill-rule="nonzero"/>
			<path id="Vector" d="M29.88 26.55C29.88 28.39 28.39 29.88 26.56 29.88L10.43 29.88C8.6 29.88 7.11 28.39 7.11 26.55L7.11 10.44C7.11 8.6 8.6 7.11 10.43 7.11L26.56 7.11C28.39 7.11 29.88 8.6 29.88 10.44L29.88 26.55Z" fill="#F7931E" fill-opacity="1.000000" fill-rule="nonzero"/>
			<path id="Vector" d="M18.48 10.43C16.2 10.43 14.35 12.29 14.35 14.58C14.35 16.87 16.2 18.73 18.48 18.73C20.76 18.73 22.61 16.87 22.61 14.58C22.61 12.29 20.76 10.43 18.48 10.43ZM18.48 16.3C17.54 16.3 16.78 15.53 16.78 14.58C16.78 13.63 17.54 12.87 18.48 12.87C19.42 12.87 20.19 13.63 20.19 14.58C20.19 15.53 19.42 16.3 18.48 16.3Z" fill="#FFFFFF" fill-opacity="1.000000" fill-rule="nonzero"/>
			<path id="Vector" d="M19.94 22.03C21.59 21.69 22.58 20.91 22.63 20.86C23.12 20.47 23.2 19.76 22.81 19.28C22.42 18.79 21.71 18.71 21.23 19.1C21.22 19.11 20.16 19.93 18.43 19.93C16.69 19.93 15.61 19.11 15.6 19.1C15.12 18.71 14.41 18.79 14.02 19.28C13.63 19.76 13.71 20.47 14.2 20.86C14.25 20.91 15.28 21.71 16.98 22.04L14.61 24.53C14.18 24.98 14.19 25.69 14.64 26.13C14.86 26.34 15.14 26.44 15.42 26.44C15.71 26.44 16.01 26.33 16.23 26.1L18.43 23.74L20.85 26.11C21.29 26.55 22 26.55 22.43 26.11C22.87 25.67 22.87 24.96 22.43 24.52L19.94 22.03Z" fill="#FFFFFF" fill-opacity="1.000000" fill-rule="nonzero"/>
			<path id="Vector" d="M18.43 19.93C18.42 19.93 18.43 19.93 18.43 19.93C18.42 19.93 18.43 19.93 18.43 19.93Z" fill="#FFFFFF" fill-opacity="1.000000" fill-rule="nonzero"/>
		</g>
	</g>
</svg>
