<svg width="58.000000" height="37.000000" viewBox="0 0 58 37" fill="none" xmlns="http://www.w3.org/2000/svg" xmlns:xlink="http://www.w3.org/1999/xlink">
	<desc>
			Created with Pixso.
	</desc>
	<defs>
		<clipPath id="clip223_3866">
			<rect id="Google_Pay_Logo 1" width="46.000000" height="22.000000" transform="translate(6.000000 8.000000)" fill="white" fill-opacity="0"/>
		</clipPath>
		<clipPath id="clip223_3865">
			<rect id="Frame 1917" rx="10.000000" width="58.000000" height="37.000000" fill="white" fill-opacity="0"/>
		</clipPath>
	</defs>
	<rect id="Frame 1917" rx="10.000000" width="58.000000" height="37.000000" fill="#FFFFFF" fill-opacity="1.000000"/>
	<g clip-path="url(#clip223_3865)">
		<rect id="Google_Pay_Logo 1" width="46.000000" height="22.000000" transform="translate(6.000000 8.000000)" fill="#FFFFFF" fill-opacity="0"/>
		<g clip-path="url(#clip223_3866)">
			<path id="Vector" d="M27.73 19.37L27.73 24.74L26 24.74L26 11.46L30.49 11.46C31.58 11.46 32.62 11.86 33.42 12.61C34.23 13.31 34.63 14.35 34.63 15.44C34.63 16.54 34.23 17.52 33.42 18.27C32.62 19.02 31.64 19.43 30.49 19.43L27.73 19.37ZM27.73 13.08L27.73 17.7L30.6 17.7C31.24 17.7 31.87 17.46 32.27 17C33.19 16.14 33.19 14.69 32.33 13.83L32.27 13.77C31.81 13.31 31.24 13.02 30.6 13.08L27.73 13.08Z" fill="#5F6368" fill-opacity="1.000000" fill-rule="nonzero"/>
			<path id="Vector" d="M38.6 15.39C39.86 15.39 40.84 15.73 41.59 16.43C42.33 17.12 42.68 18.04 42.68 19.2L42.68 24.74L41.07 24.74L41.07 23.47L41.01 23.47C40.32 24.51 39.34 25.03 38.2 25.03C37.22 25.03 36.35 24.74 35.66 24.16C35.03 23.59 34.63 22.78 34.63 21.91C34.63 20.99 34.97 20.24 35.66 19.66C36.35 19.08 37.33 18.85 38.48 18.85C39.52 18.85 40.32 19.02 40.96 19.43L40.96 19.02C40.96 18.45 40.72 17.87 40.26 17.52C39.8 17.12 39.23 16.89 38.6 16.89C37.62 16.89 36.87 17.29 36.35 18.1L34.86 17.18C35.78 15.96 36.99 15.39 38.6 15.39ZM36.41 21.97C36.41 22.43 36.64 22.83 36.99 23.07C37.39 23.35 37.85 23.53 38.31 23.53C39 23.53 39.69 23.24 40.21 22.72C40.78 22.2 41.07 21.56 41.07 20.87C40.55 20.47 39.8 20.24 38.83 20.24C38.14 20.24 37.56 20.41 37.1 20.76C36.64 21.04 36.41 21.45 36.41 21.97Z" fill="#5F6368" fill-opacity="1.000000" fill-rule="nonzero"/>
			<path id="Vector" d="M52 15.67L46.3 28.78L44.58 28.78L46.71 24.22L42.97 15.73L44.81 15.73L47.51 22.26L47.57 22.26L50.21 15.73L52 15.73L52 15.67Z" fill="#5F6368" fill-opacity="1.000000" fill-rule="nonzero"/>
			<path id="Vector" d="M20.89 18.22C20.89 17.7 20.83 17.18 20.77 16.66L13.58 16.66L13.58 19.6L17.67 19.6C17.5 20.53 16.98 21.39 16.17 21.91L16.17 23.82L18.64 23.82C20.08 22.49 20.89 20.53 20.89 18.22Z" fill="#4285F4" fill-opacity="1.000000" fill-rule="nonzero"/>
			<path id="Vector" d="M13.58 25.66C15.66 25.66 17.38 24.97 18.64 23.82L16.17 21.91C15.48 22.37 14.62 22.66 13.58 22.66C11.63 22.66 9.91 21.33 9.33 19.49L6.8 19.49L6.8 21.45C8.12 24.05 10.71 25.66 13.58 25.66Z" fill="#34A853" fill-opacity="1.000000" fill-rule="nonzero"/>
			<path id="Vector" d="M9.33 19.49C8.98 18.56 8.98 17.52 9.33 16.54L9.33 14.58L6.8 14.58C5.71 16.71 5.71 19.26 6.8 21.45L9.33 19.49Z" fill="#FBBC04" fill-opacity="1.000000" fill-rule="nonzero"/>
			<path id="Vector" d="M13.58 13.42C14.68 13.42 15.71 13.83 16.52 14.58L18.7 12.38C17.32 11.11 15.48 10.36 13.64 10.42C10.77 10.42 8.12 12.04 6.86 14.64L9.39 16.6C9.91 14.75 11.63 13.42 13.58 13.42Z" fill="#EA4335" fill-opacity="1.000000" fill-rule="nonzero"/>
		</g>
	</g>
</svg>
