<svg width="27.000000" height="23.000000" viewBox="0 0 27 23" fill="none" xmlns="http://www.w3.org/2000/svg" xmlns:xlink="http://www.w3.org/1999/xlink">
	<desc>
			Created with Pixso.
	</desc>
	<defs/>
	<path id="button" d="M19.13 0C16.53 0 14.29 1.23 13.07 3.27C11.85 1.23 9.62 0 7.02 0C5.16 0 3.37 0.74 2.05 2.05C0.74 3.37 0 5.16 0 7.02C0 10.48 2.17 14.1 6.46 17.77C8.44 19.45 10.58 20.94 12.84 22.22C12.91 22.26 12.99 22.28 13.07 22.28C13.15 22.28 13.23 22.26 13.3 22.22C15.57 20.94 17.71 19.45 19.68 17.77C23.97 14.1 26.15 10.48 26.15 7.02C26.15 5.16 25.41 3.37 24.09 2.05C22.78 0.74 20.99 0 19.13 0ZM13.07 21.24C11.38 20.27 0.96 14.05 0.96 7.02C0.97 5.41 1.6 3.87 2.74 2.74C3.87 1.6 5.41 0.97 7.02 0.96C9.58 0.96 11.72 2.33 12.62 4.54C12.66 4.63 12.72 4.7 12.8 4.76C12.88 4.81 12.98 4.84 13.07 4.84C13.17 4.84 13.26 4.81 13.34 4.76C13.42 4.7 13.48 4.63 13.52 4.54C14.42 2.33 16.57 0.96 19.13 0.96C20.73 0.97 22.27 1.6 23.41 2.74C24.54 3.87 25.18 5.41 25.18 7.02C25.18 14.04 14.77 20.27 13.07 21.24Z" fill="#000000" fill-opacity="1.000000" fill-rule="nonzero"/>
</svg>
