<svg width="13.000000" height="18.000000" viewBox="0 0 13 18" fill="none" xmlns="http://www.w3.org/2000/svg" xmlns:xlink="http://www.w3.org/1999/xlink">
	<desc>
			Created with Pixso.
	</desc>
	<defs/>
	<path id="Vector" d="M6.12 8.31C5.54 8.31 4.98 8.08 4.57 7.67C4.16 7.26 3.93 6.7 3.93 6.12C3.93 5.54 4.16 4.98 4.57 4.57C4.98 4.16 5.54 3.93 6.12 3.93C6.7 3.93 7.26 4.16 7.67 4.57C8.08 4.98 8.31 5.54 8.31 6.12C8.31 6.41 8.25 6.69 8.14 6.96C8.03 7.22 7.87 7.46 7.67 7.67C7.46 7.87 7.22 8.03 6.96 8.14C6.69 8.25 6.41 8.31 6.12 8.31ZM6.12 0C4.5 0 2.94 0.64 1.79 1.79C0.64 2.94 0 4.5 0 6.12C0 10.71 6.12 17.5 6.12 17.5C6.12 17.5 12.25 10.71 12.25 6.12C12.25 4.5 11.6 2.94 10.45 1.79C9.3 0.64 7.74 0 6.12 0Z" fill="#FB0F40" fill-opacity="1.000000" fill-rule="nonzero"/>
</svg>
