<svg width="22.222656" height="15.701416" viewBox="0 0 22.2227 15.7014" fill="none" xmlns="http://www.w3.org/2000/svg" xmlns:xlink="http://www.w3.org/1999/xlink">
	<desc>
			Created with Pixso.
	</desc>
	<defs/>
	<path id="Vector" d="M22.13 0L12.02 10.06C11.76 10.32 11.41 10.47 11.04 10.47C10.68 10.47 10.33 10.32 10.06 10.06L0.04 0.07C0.01 0.18 0 0.3 0 0.42L0 14.31C0 14.68 0.14 15.03 0.4 15.29C0.66 15.55 1.02 15.7 1.38 15.7L20.83 15.7C21.2 15.7 21.55 15.55 21.81 15.29C22.07 15.03 22.22 14.68 22.22 14.31L22.22 0.42C22.21 0.27 22.18 0.13 22.13 0ZM2.33 14.31L1.37 14.31L1.37 13.31L6.42 8.31L7.4 9.29L2.33 14.31ZM20.81 14.31L19.84 14.31L14.78 9.29L15.76 8.31L20.81 13.31L20.81 14.31Z" fill="#FB0F40" fill-opacity="1.000000" fill-rule="nonzero"/>
</svg>
