<svg width="63.000000" height="37.000000" viewBox="0 0 63 37" fill="none" xmlns="http://www.w3.org/2000/svg" xmlns:xlink="http://www.w3.org/1999/xlink">
	<desc>
			Created with Pixso.
	</desc>
	<defs>
		<clipPath id="clip223_3862">
			<rect id="Mir-logo.SVG 1" width="60.000000" height="18.000000" transform="translate(1.000000 10.000000)" fill="white" fill-opacity="0"/>
		</clipPath>
		<clipPath id="clip223_3861">
			<rect id="Frame 1916" rx="10.000000" width="63.000000" height="37.000000" fill="white" fill-opacity="0"/>
		</clipPath>
		<linearGradient x1="56.500000" y1="9.999951" x2="44.500000" y2="9.999951" id="paint_linear_223_3864_0" gradientUnits="userSpaceOnUse">
			<stop stop-color="#1F5CD7"/>
			<stop offset="1.000000" stop-color="#02AEFF"/>
		</linearGradient>
	</defs>
	<rect id="Frame 1916" rx="10.000000" width="63.000000" height="37.000000" fill="#FFFFFF" fill-opacity="1.000000"/>
	<g clip-path="url(#clip223_3861)">
		<rect id="Mir-logo.SVG 1" width="60.000000" height="18.000000" transform="translate(1.000000 10.000000)" fill="#FFFFFF" fill-opacity="0"/>
		<g clip-path="url(#clip223_3862)">
			<path id="Vector" d="M5.65 11.95L10.6 11.95C11.05 11.95 12.4 11.8 13 13.9C13.45 15.25 14.05 17.35 14.95 20.5L15.25 20.5C16.15 17.2 16.9 14.95 17.2 13.9C17.8 11.8 19.3 11.95 19.9 11.95L24.55 11.95L24.55 26.35L19.75 26.35L19.75 17.79L19.45 17.79L16.9 26.35L13.3 26.35L10.75 17.79L10.3 17.79L10.3 26.35L5.65 26.35L5.65 11.95ZM26.5 11.95L31.3 11.95L31.3 20.5L31.75 20.5L34.9 13.45C35.5 12.1 36.85 11.95 36.85 11.95L41.35 11.95L41.35 26.35L36.55 26.35L36.55 17.79L36.25 17.79L33.1 24.85C32.5 26.2 31 26.35 31 26.35L26.5 26.35L26.5 11.95ZM47.8 22L47.8 26.35L43.3 26.35L43.3 18.85L58 18.85C57.4 20.65 55.3 22 52.9 22L47.8 22Z" fill="#0F754E" fill-opacity="1.000000" fill-rule="nonzero"/>
			<path id="Vector" d="M58.29 17.95C58.9 15.25 57.09 11.95 53.2 11.95L43 11.95C43.29 15.09 46 17.95 48.84 17.95L58.29 17.95Z" fill="url(#paint_linear_223_3864_0)" fill-opacity="1.000000" fill-rule="nonzero"/>
		</g>
	</g>
</svg>
