<svg width="18.000000" height="17.000000" viewBox="0 0 18 17" fill="none" xmlns="http://www.w3.org/2000/svg" xmlns:xlink="http://www.w3.org/1999/xlink">
	<desc>
			Created with Pixso.
	</desc>
	<defs/>
	<path id="Vector" d="M12.55 10.15L12.1 10.6C12.1 10.6 11.01 11.68 8.06 8.74C5.1 5.8 6.19 4.73 6.19 4.73L6.47 4.44C7.18 3.74 7.25 2.61 6.63 1.79L5.37 0.1C4.61 -0.92 3.13 -1.05 2.26 -0.18L0.69 1.38C0.25 1.81 -0.04 2.37 0 2.99C0.09 4.58 0.81 7.99 4.81 11.97C9.06 16.19 13.04 16.36 14.67 16.21C15.19 16.16 15.63 15.9 16 15.54L17.42 14.13C18.38 13.18 18.11 11.54 16.88 10.87L14.97 9.83C14.16 9.4 13.18 9.53 12.55 10.15Z" fill="#FB0F40" fill-opacity="1.000000" fill-rule="nonzero"/>
</svg>
