<svg width="22.000000" height="22.000000" viewBox="0 0 22 22" fill="none" xmlns="http://www.w3.org/2000/svg" xmlns:xlink="http://www.w3.org/1999/xlink">
	<desc>
			Created with Pixso.
	</desc>
	<defs/>
	<path id="Vector" d="M11 10.25C12.45 10.25 13.85 9.67 14.88 8.63C15.92 7.6 16.5 6.2 16.5 4.75C16.5 3.29 15.92 1.89 14.88 0.86C13.85 -0.18 12.45 -0.75 11 -0.75C9.54 -0.75 8.14 -0.18 7.11 0.86C6.07 1.89 5.5 3.29 5.5 4.75C5.5 6.2 6.07 7.6 7.11 8.63C8.14 9.67 9.54 10.25 11 10.25ZM15.17 6.47Q14.84 7.27 14.18 7.93Q13.52 8.59 12.72 8.92Q11.93 9.25 11 9.25Q10.06 9.25 9.27 8.92Q8.47 8.59 7.81 7.93Q7.15 7.27 6.82 6.47Q6.5 5.68 6.5 4.75Q6.5 3.81 6.82 3.02Q7.15 2.22 7.81 1.56Q8.47 0.9 9.27 0.57Q10.06 0.25 11 0.25Q11.93 0.25 12.72 0.57Q13.52 0.9 14.18 1.56Q14.84 2.22 15.17 3.02Q15.5 3.81 15.5 4.75Q15.5 5.68 15.17 6.47ZM1.83 21.25C1.83 21.25 0 21.25 0 19.41C0 17.58 1.83 12.08 11 12.08C20.16 12.08 22 17.58 22 19.41C22 21.25 20.16 21.25 20.16 21.25L1.83 21.25ZM1.2 20.04Q1 19.83 1 19.41Q1 19.29 1 19.17Q1.11 17.42 2.76 15.76Q5.45 13.08 11 13.08Q16.54 13.08 19.23 15.76Q20.88 17.42 20.99 19.17Q21 19.29 21 19.41Q21 19.83 20.79 20.04Q20.58 20.25 20.16 20.25L1.83 20.25Q1.41 20.25 1.2 20.04Z" fill="#2A1F20" fill-opacity="1.000000" fill-rule="evenodd"/>
</svg>
