<svg width="18.000000" height="17.000000" viewBox="0 0 18 17" fill="none" xmlns="http://www.w3.org/2000/svg" xmlns:xlink="http://www.w3.org/1999/xlink">
	<desc>
			Created with Pixso.
	</desc>
	<defs/>
	<path id="Vector" d="M12.55 10.9L12.1 11.35C12.1 11.35 11.01 12.43 8.06 9.49C5.1 6.55 6.19 5.48 6.19 5.48L6.47 5.19C7.18 4.49 7.25 3.36 6.63 2.54L5.37 0.85C4.61 -0.17 3.13 -0.3 2.26 0.57L0.69 2.13C0.25 2.56 -0.04 3.12 0 3.74C0.09 5.33 0.81 8.74 4.81 12.72C9.06 16.94 13.04 17.11 14.67 16.96C15.19 16.91 15.63 16.65 16 16.29L17.42 14.88C18.38 13.93 18.11 12.29 16.88 11.62L14.97 10.58C14.16 10.15 13.18 10.28 12.55 10.9Z" fill="#FB0F40" fill-opacity="1.000000" fill-rule="nonzero"/>
</svg>
